<svg width="37" height="37" viewBox="0 0 37 37" fill="none" xmlns="http://www.w3.org/2000/svg">
<path d="M1.54169 3.85418H4.82093C5.29932 3.85418 5.53851 3.85418 5.73297 3.94092C5.90439 4.01738 6.05083 4.14056 6.15554 4.29634C6.27432 4.47306 6.3153 4.70872 6.39727 5.18003L7.10509 9.25001M7.10509 9.25001L8.74175 18.6608C8.92093 19.6911 9.01052 20.2062 9.27585 20.5773C9.50947 20.904 9.83608 21.1529 10.2131 21.2914C10.6413 21.4487 11.1618 21.3983 12.2027 21.2976L30.2541 19.5507C31.2754 19.4519 31.7861 19.4024 32.172 19.1717C32.5119 18.9685 32.7839 18.669 32.9534 18.3111C33.1459 17.9047 33.1459 17.3917 33.1459 16.3656V13.1275C33.1459 12.037 33.1459 11.4917 32.9359 11.0704C32.7511 10.6996 32.4557 10.3954 32.0906 10.1997C31.6756 9.97732 31.1306 9.96119 30.0405 9.92892L7.10509 9.25001Z" stroke="#262F56" stroke-width="1.8" stroke-linecap="round" stroke-linejoin="round"/>
<circle cx="13.1041" cy="29.2917" r="3.08333" stroke="#262F56" stroke-width="1.8"/>
<circle cx="27.75" cy="29.2917" r="3.08333" stroke="#262F56" stroke-width="1.8"/>
</svg>
