<svg width="43" height="32" viewBox="0 0 43 32" fill="none" xmlns="http://www.w3.org/2000/svg">
<path d="M36.3725 10.2353H37.9804C40.2003 10.2353 42 12.0349 42 14.2549V27.1176C42 29.3376 40.2003 31.1373 37.9804 31.1373H5.01959" stroke="#353535" stroke-width="1.5" stroke-linecap="round"/>
<path d="M5.01959 10.2353H26.3235V10.2353" stroke="#353535" stroke-width="1.5" stroke-linecap="round"/>
<path fill-rule="evenodd" clip-rule="evenodd" d="M1 14.2353C1 12.0261 2.79086 10.2353 5 10.2353H18.7059C20.915 10.2353 22.7059 12.0262 22.7059 14.2353V20.6863V27.1373C22.7059 29.3464 20.915 31.1373 18.7059 31.1373H5C2.79086 31.1373 1 29.3464 1 27.1373V14.2353Z" stroke="#353535" stroke-width="1.5"/>
<path d="M36.1533 6.39216L31.3298 1.56863L26.5063 6.39216" stroke="#353535" stroke-width="1.5" stroke-linecap="round" stroke-linejoin="round"/>
<path d="M31.3298 1.56863L31.3298 23.4572" stroke="#353535" stroke-width="1.5" stroke-linecap="round"/>
</svg>
