<svg width="130" height="130" viewBox="0 0 130 130" fill="none" xmlns="http://www.w3.org/2000/svg">
<path fill-rule="evenodd" clip-rule="evenodd" d="M65 119.167C94.9154 119.167 119.167 94.9154 119.167 65C119.167 35.0846 94.9154 10.8333 65 10.8333C35.0846 10.8333 10.8333 35.0846 10.8333 65C10.8333 94.9154 35.0846 119.167 65 119.167ZM62.4809 48.2198C59.1228 48.6086 56.6484 50.6234 56.6484 53.8401C56.6484 56.3852 58.2744 58.2233 61.4911 59.2837C61.8093 59.3898 62.1274 59.4958 62.4809 59.5665V48.2198ZM67.9245 81.9773C71.6714 81.6591 74.3225 79.3615 74.3225 75.8974C74.3225 72.9988 72.5905 71.0547 68.6315 69.9589C68.4194 69.9235 68.1719 69.8529 67.9245 69.7822V81.9773ZM67.9598 89.6125L67.9952 94.1017H62.2688L62.3041 89.6832C50.6039 88.8348 46.2207 81.9419 46.15 75.4025H55.4112C55.588 78.6545 57.9563 81.3764 62.4809 81.9773V68.8278L59.4409 68.1561C52.8662 66.7069 47.0691 62.6065 47.0691 54.5824C47.0691 46.0989 53.7852 41.3976 62.3395 40.6199V36.06H68.0659V40.6552C77.009 41.6096 82.7707 47.1947 82.9121 54.5471H73.863C73.757 51.7192 71.6714 48.8914 67.9245 48.2905V60.627L70.9291 61.2632C78.0341 62.7832 83.7958 66.3887 83.7958 74.943C83.7958 83.3559 77.6453 88.6934 67.9598 89.6125Z" fill="#262F56"/>
</svg>
