<svg width="40" height="40" viewBox="0 0 40 40" fill="none" xmlns="http://www.w3.org/2000/svg">
<circle cx="20" cy="20" r="15" stroke="#262F56" stroke-width="1.8"/>
<path d="M17.4317 16.5685C17.4317 15.5784 18.1934 14.9582 19.2271 14.8385V18.3313C19.1182 18.3095 19.0203 18.2769 18.9224 18.2442C17.9322 17.9178 17.4317 17.352 17.4317 16.5685ZM22.8722 23.3583C22.8722 24.4247 22.0561 25.1319 20.9027 25.2299V21.4759C20.9789 21.4977 21.0551 21.5194 21.1204 21.5303C22.339 21.8676 22.8722 22.4661 22.8722 23.3583ZM20.9245 28.962L20.9136 27.5802C23.895 27.2973 25.7883 25.6542 25.7883 23.0645C25.7883 20.4313 24.0147 19.3214 21.8276 18.8536L20.9027 18.6577V14.8602C22.0561 15.0452 22.6981 15.9157 22.7307 16.7862H25.5163C25.4728 14.5229 23.6992 12.8037 20.9463 12.5099V11.0954H19.1835V12.499C16.5503 12.7384 14.4829 14.1856 14.4829 16.797C14.4829 19.267 16.2674 20.5292 18.2913 20.9754L19.2271 21.1821V25.2299C17.8343 25.0449 17.1052 24.207 17.0508 23.206H14.2C14.2218 25.219 15.571 27.3408 19.1726 27.6019L19.1618 28.962H20.9245Z" fill="#262F56"/>
</svg>
