<svg width="53" height="53" viewBox="0 0 53 53" fill="none" xmlns="http://www.w3.org/2000/svg">
<path fill-rule="evenodd" clip-rule="evenodd" d="M26.5 48.5833C38.6963 48.5833 48.5834 38.6963 48.5834 26.5C48.5834 14.3037 38.6963 4.41666 26.5 4.41666C14.3037 4.41666 4.41669 14.3037 4.41669 26.5C4.41669 38.6963 14.3037 48.5833 26.5 48.5833ZM25.473 19.6588C24.1039 19.8173 23.0951 20.6388 23.0951 21.9502C23.0951 22.9878 23.7581 23.7372 25.0695 24.1695C25.1992 24.2127 25.3289 24.256 25.473 24.2848V19.6588ZM27.6923 33.4215C29.2199 33.2918 30.3007 32.3551 30.3007 30.9428C30.3007 29.7611 29.5946 28.9684 27.9805 28.5217C27.8941 28.5073 27.7932 28.4785 27.6924 28.4496L27.6923 28.4496V33.4215ZM27.7067 36.5343L27.7211 38.3645H25.3865L25.4009 36.5631C20.6308 36.2173 18.8438 33.4071 18.815 30.741H22.5908C22.6628 32.0668 23.6284 33.1765 25.473 33.4215V28.0605L24.2336 27.7867C21.5531 27.1959 19.1897 25.5242 19.1897 22.2528C19.1897 18.7941 21.9278 16.8775 25.4153 16.5604V14.7014H27.75V16.5748C31.396 16.9639 33.745 19.2409 33.8027 22.2384H30.1134C30.0702 21.0855 29.2199 19.9326 27.6923 19.6876V24.7171L28.9173 24.9765C31.8139 25.5962 34.1629 27.0662 34.1629 30.5537C34.1629 33.9835 31.6554 36.1596 27.7067 36.5343Z" fill="white"/>
</svg>
