<svg width="15" height="14" viewBox="0 0 15 14" fill="none" xmlns="http://www.w3.org/2000/svg">
<path d="M8 4V3.4C8 2.55992 8 2.13988 7.83651 1.81901C7.6927 1.53677 7.46323 1.3073 7.18099 1.16349C6.86012 1 6.44008 1 5.6 1H3.4C2.55992 1 2.13988 1 1.81901 1.16349C1.53677 1.3073 1.3073 1.53677 1.16349 1.81901C1 2.13988 1 2.55992 1 3.4V10.6C1 11.4401 1 11.8601 1.16349 12.181C1.3073 12.4632 1.53677 12.6927 1.81901 12.8365C2.13988 13 2.55992 13 3.4 13H5.6C6.44008 13 6.86012 13 7.18099 12.8365C7.46323 12.6927 7.6927 12.4632 7.83651 12.181C8 11.8601 8 11.4401 8 10.6V10M5 7H14M14 7L11 10M14 7L11 4" stroke="white" stroke-width="1.5" stroke-linecap="round" stroke-linejoin="round"/>
</svg>
