<svg width="22" height="22" viewBox="0 0 22 22" fill="none" xmlns="http://www.w3.org/2000/svg">
<path fill-rule="evenodd" clip-rule="evenodd" d="M7.89999 0.600006H7.86104H7.86103C6.77396 0.599998 5.90328 0.599992 5.19951 0.657492C4.47685 0.716537 3.85128 0.840667 3.27544 1.13407C2.35344 1.60385 1.60384 2.35346 1.13406 3.27545C0.840652 3.8513 0.716521 4.47686 0.657477 5.19953C0.599977 5.9033 0.599983 6.77397 0.599991 7.86104V7.86106V7.90001V14.1V14.139V14.139C0.599983 15.226 0.599977 16.0967 0.657477 16.8005C0.716521 17.5232 0.840652 18.1487 1.13406 18.7246C1.60384 19.6466 2.35344 20.3962 3.27544 20.8659C3.85128 21.1593 4.47685 21.2835 5.19951 21.3425C5.90326 21.4 6.77392 21.4 7.86095 21.4H7.86104H7.89999H14.1H14.1389H14.139C15.2261 21.4 16.0967 21.4 16.8005 21.3425C17.5231 21.2835 18.1487 21.1593 18.7245 20.8659C19.6465 20.3962 20.3961 19.6466 20.8659 18.7246C21.1593 18.1487 21.2835 17.5232 21.3425 16.8005C21.4 16.0967 21.4 15.2261 21.4 14.139V14.139V14.1V7.90001V7.86105V7.86097C21.4 6.77393 21.4 5.90328 21.3425 5.19953C21.2835 4.47686 21.1593 3.8513 20.8659 3.27545C20.3961 2.35346 19.6465 1.60385 18.7245 1.13407C18.1487 0.840667 17.5231 0.716537 16.8005 0.657492C16.0967 0.599992 15.226 0.599998 14.139 0.600006H14.1389H14.1H7.89999ZM4.09262 2.73789C4.37242 2.59532 4.73474 2.50146 5.34609 2.45151C5.96795 2.40071 6.76504 2.40001 7.89999 2.40001H14.1C15.2349 2.40001 16.032 2.40071 16.6539 2.45151C17.2652 2.50146 17.6276 2.59532 17.9074 2.73789C18.4907 3.03509 18.9649 3.50933 19.2621 4.09264C19.4047 4.37244 19.4985 4.73475 19.5485 5.3461C19.5993 5.96796 19.6 6.76505 19.6 7.90001V13.4263L17.6148 10.7097C16.8158 9.61642 15.1842 9.61642 14.3852 10.7097L11.7292 14.3442C10.9663 15.3883 9.42803 15.4448 8.59056 14.4595L8.02387 13.7928C7.22521 12.8532 5.77478 12.8532 4.97612 13.7928L2.46016 16.7528C2.45714 16.7205 2.45425 16.6876 2.4515 16.6539C2.40069 16.0321 2.39999 15.235 2.39999 14.1V7.90001C2.39999 6.76505 2.40069 5.96796 2.4515 5.3461C2.50145 4.73475 2.5953 4.37244 2.73787 4.09264C3.03508 3.50933 3.50932 3.03509 4.09262 2.73789ZM9.5 7C9.5 8.38072 8.38071 9.5 7 9.5C5.61929 9.5 4.5 8.38072 4.5 7C4.5 5.61929 5.61929 4.5 7 4.5C8.38071 4.5 9.5 5.61929 9.5 7Z" fill="#5D3EA8"/>
</svg>
