<svg width="22" height="14" viewBox="0 0 22 14" fill="none" xmlns="http://www.w3.org/2000/svg">
<path d="M19 1.16H3C1.89543 1.16 1 2.05543 1 3.16V10.83C1 11.9346 1.89543 12.83 3 12.83H19C20.1046 12.83 21 11.9346 21 10.83V3.16C21 2.05543 20.1046 1.16 19 1.16Z" stroke="#5D3EA8" stroke-width="1.5" stroke-linecap="round" stroke-linejoin="round"/>
<path d="M5 1.16C5 3.37 3.21 5.65 1 5.65" stroke="#5D3EA8" stroke-width="1.5" stroke-linecap="round" stroke-linejoin="round"/>
<path d="M1 8.27C3.21 8.27 5 10.63 5 12.84" stroke="#5D3EA8" stroke-width="1.5" stroke-linecap="round" stroke-linejoin="round"/>
<path d="M17 12.84C17 10.63 18.79 8.27 21 8.27" stroke="#5D3EA8" stroke-width="1.5" stroke-linecap="round" stroke-linejoin="round"/>
<path d="M21 5.65C18.79 5.65 17 3.37 17 1.16V1.65" stroke="#5D3EA8" stroke-width="1.5" stroke-linecap="round" stroke-linejoin="round"/>
<path d="M11 9C12.1046 9 13 8.10457 13 7C13 5.89543 12.1046 5 11 5C9.89543 5 9 5.89543 9 7C9 8.10457 9.89543 9 11 9Z" stroke="#5D3EA8" stroke-width="1.5" stroke-linecap="round" stroke-linejoin="round"/>
</svg>
