<svg width="20" height="22" viewBox="0 0 20 22" fill="none" xmlns="http://www.w3.org/2000/svg">
<path d="M7.27212 3.43149L8.14283 3.65921V3.65921L7.27212 3.43149ZM4.808 4.85415L5.04614 3.98622H5.04614L4.808 4.85415ZM2.08016 9.57891L2.71273 8.93871H2.71273L2.08016 9.57891ZM2.08016 12.4242L2.71273 13.0644H2.71273L2.08016 12.4242ZM4.808 17.149L4.56986 16.2811H4.56986L4.808 17.149ZM7.27212 18.5716L6.4014 18.7994L7.27212 18.5716ZM12.7278 18.5716L13.5985 18.7994L12.7278 18.5716ZM15.1919 17.149L15.4301 16.2811H15.4301L15.1919 17.149ZM17.9198 12.4242L17.2872 13.0644L17.9198 12.4242ZM17.9198 9.57891L17.2872 8.93871V8.93871L17.9198 9.57891ZM15.1919 4.85415L14.9538 3.98622L15.1919 4.85415ZM12.7278 3.43149L13.5985 3.20376V3.20376L12.7278 3.43149ZM17.6049 5.30563L18.3249 4.76564L17.6049 5.30563ZM15.6918 4.71699L15.4537 3.84907L15.6918 4.71699ZM18.2905 9.21262L18.923 9.85282L18.2905 9.21262ZM18.7367 7.26279L19.564 6.90844L18.7367 7.26279ZM18.7356 14.7399L17.9084 14.3853L18.7356 14.7399ZM18.2895 12.7896L17.6569 13.4298L18.2895 12.7896ZM17.6026 16.6975L18.3224 17.2378L17.6026 16.6975ZM11.1291 20.4336L11.0232 19.5399L11.1291 20.4336ZM12.597 19.0716L11.7263 18.8439L12.597 19.0716ZM2.39743 16.6975L1.67765 17.2378L2.39743 16.6975ZM1.7105 12.7895L1.07792 12.1493L1.7105 12.7895ZM4.30822 4.71702L4.07008 5.58494L4.30822 4.71702ZM2.39507 5.30566L3.11509 5.84564L2.39507 5.30566ZM7.40288 19.0716L6.53217 19.2994L7.40288 19.0716ZM7.40373 2.92827L8.27444 3.156L7.40373 2.92827ZM1.70954 9.2127L1.07696 9.8529L1.70954 9.2127ZM12.5962 2.92826L13.4669 2.70053L12.5962 2.92826ZM10 2.4C10.3463 2.4 10.6874 2.42042 11.0223 2.46004L11.2338 0.672507C10.8289 0.6246 10.4171 0.6 10 0.6V2.4ZM8.97759 2.46006C9.31253 2.42042 9.6537 2.4 10 2.4V0.6C9.58286 0.6 9.17107 0.624607 8.76608 0.672526L8.97759 2.46006ZM6.53301 2.70055L6.4014 3.20376L8.14283 3.65921L8.27444 3.156L6.53301 2.70055ZM6.4014 3.20376C6.24638 3.79649 5.63697 4.14833 5.04614 3.98622L4.56986 5.72207C6.1275 6.14945 7.73413 5.22186 8.14283 3.65921L6.4014 3.20376ZM5.04614 3.98622L4.54636 3.84909L4.07008 5.58494L4.56986 5.72207L5.04614 3.98622ZM2.0906 7.61723C2.3617 6.98428 2.70675 6.39011 3.11509 5.84564L1.67506 4.76567C1.18166 5.42358 0.764212 6.14221 0.435982 6.90855L2.0906 7.61723ZM1.07696 9.8529L1.44758 10.2191L2.71273 8.93871L2.34211 8.57251L1.07696 9.8529ZM1.44758 10.2191C1.88339 10.6497 1.88339 11.3534 1.44758 11.784L2.71273 13.0644C3.86167 11.9292 3.86167 10.074 2.71273 8.93871L1.44758 10.2191ZM1.44758 11.784L1.07792 12.1493L2.34307 13.4297L2.71273 13.0644L1.44758 11.784ZM3.11722 16.1572C2.70848 15.6127 2.36305 15.0183 2.09164 14.3852L0.437235 15.0944C0.765846 15.861 1.18374 16.5798 1.67765 17.2378L3.11722 16.1572ZM4.54829 18.1535L5.04614 18.0169L4.56986 16.2811L4.07201 16.4177L4.54829 18.1535ZM5.04614 18.0169C5.63697 17.8548 6.24638 18.2066 6.4014 18.7994L8.14283 18.3439C7.73413 16.7813 6.1275 15.8537 4.56986 16.2811L5.04614 18.0169ZM6.4014 18.7994L6.53217 19.2994L8.2736 18.8439L8.14283 18.3439L6.4014 18.7994ZM10 19.6C9.65338 19.6 9.3119 19.5795 8.97666 19.5398L8.76496 21.3273C9.17031 21.3753 9.58247 21.4 10 21.4V19.6ZM11.0232 19.5399C10.688 19.5795 10.3466 19.6 10 19.6V21.4C10.4175 21.4 10.8296 21.3754 11.2349 21.3274L11.0232 19.5399ZM13.4677 19.2994L13.5985 18.7994L11.8571 18.3439L11.7263 18.8439L13.4677 19.2994ZM13.5985 18.7994C13.7535 18.2066 14.3629 17.8548 14.9538 18.0169L15.4301 16.2811C13.8724 15.8537 12.2658 16.7813 11.8571 18.3439L13.5985 18.7994ZM14.9538 18.0169L15.4517 18.1535L15.928 16.4177L15.4301 16.2811L14.9538 18.0169ZM17.9084 14.3853C17.6369 15.0184 17.2915 15.6127 16.8828 16.1572L18.3224 17.2378C18.8163 16.5798 19.2341 15.861 19.5628 15.0945L17.9084 14.3853ZM18.9221 12.1494L18.5523 11.784L17.2872 13.0644L17.6569 13.4298L18.9221 12.1494ZM18.5523 11.784C18.1165 11.3534 18.1165 10.6497 18.5523 10.2191L17.2872 8.93871C16.1382 10.074 16.1382 11.9292 17.2872 13.0644L18.5523 11.784ZM18.5523 10.2191L18.923 9.85282L17.6579 8.57242L17.2872 8.93871L18.5523 10.2191ZM16.8849 5.84561C17.2933 6.39006 17.6383 6.98421 17.9094 7.61714L19.564 6.90844C19.2358 6.14212 18.8183 5.42352 18.3249 4.76564L16.8849 5.84561ZM15.4537 3.84907L14.9538 3.98622L15.4301 5.72207L15.9299 5.58491L15.4537 3.84907ZM14.9538 3.98622C14.363 4.14833 13.7535 3.79649 13.5985 3.20376L11.8571 3.65921C12.2658 5.22186 13.8724 6.14945 15.4301 5.72207L14.9538 3.98622ZM13.5985 3.20376L13.4669 2.70053L11.7255 3.15599L11.8571 3.65921L13.5985 3.20376ZM9.99999 15.4C12.43 15.4 14.4 13.43 14.4 11H12.6C12.6 12.4359 11.4359 13.6 9.99999 13.6V15.4ZM5.59999 11C5.59999 13.43 7.56994 15.4 9.99999 15.4V13.6C8.56405 13.6 7.39999 12.4359 7.39999 11H5.59999ZM9.99999 6.59999C7.56994 6.59999 5.59999 8.56994 5.59999 11H7.39999C7.39999 9.56405 8.56405 8.39999 9.99999 8.39999V6.59999ZM14.4 11C14.4 8.56994 12.43 6.59999 9.99999 6.59999V8.39999C11.4359 8.39999 12.6 9.56405 12.6 11H14.4ZM18.3249 4.76564C17.6266 3.83448 16.4507 3.5755 15.4537 3.84907L15.9299 5.58491C16.3437 5.47139 16.7055 5.60641 16.8849 5.84561L18.3249 4.76564ZM18.923 9.85282C19.6579 9.12674 20.0225 7.97895 19.564 6.90844L17.9094 7.61714C18.0266 7.89069 17.9631 8.27081 17.6579 8.57242L18.923 9.85282ZM19.5628 15.0945C20.0217 14.0238 19.6571 12.8756 18.9221 12.1494L17.6569 13.4298C17.9623 13.7315 18.0256 14.1117 17.9084 14.3853L19.5628 15.0945ZM15.4517 18.1535C16.4484 18.427 17.6239 18.1683 18.3224 17.2378L16.8828 16.1572C16.7033 16.3963 16.3416 16.5312 15.928 16.4177L15.4517 18.1535ZM11.2349 21.3274C12.3925 21.1903 13.206 20.3002 13.4677 19.2994L11.7263 18.8439C11.6176 19.2595 11.3195 19.5048 11.0232 19.5399L11.2349 21.3274ZM1.67765 17.2378C2.37612 18.1683 3.55157 18.427 4.54829 18.1535L4.07201 16.4177C3.65842 16.5311 3.29666 16.3963 3.11722 16.1572L1.67765 17.2378ZM1.07792 12.1493C0.342917 12.8755 -0.0217223 14.0237 0.437235 15.0944L2.09164 14.3852C1.97437 14.1116 2.03774 13.7314 2.34307 13.4297L1.07792 12.1493ZM4.54636 3.84909C3.5493 3.57552 2.37341 3.8345 1.67506 4.76567L3.11509 5.84564C3.29448 5.60644 3.65634 5.47142 4.07008 5.58494L4.54636 3.84909ZM6.53217 19.2994C6.79393 20.3002 7.60736 21.1902 8.76496 21.3273L8.97666 19.5398C8.68037 19.5047 8.38228 19.2595 8.2736 18.8439L6.53217 19.2994ZM8.76608 0.672526C7.60836 0.809512 6.7948 1.6996 6.53301 2.70055L8.27444 3.156C8.38313 2.7404 8.68127 2.49512 8.97759 2.46006L8.76608 0.672526ZM0.435982 6.90855C-0.0225203 7.97906 0.342149 9.12683 1.07696 9.8529L2.34211 8.57251C2.03686 8.27089 1.97344 7.89078 2.0906 7.61723L0.435982 6.90855ZM11.0223 2.46004C11.3186 2.4951 11.6168 2.74038 11.7255 3.15599L13.4669 2.70053C13.2051 1.69957 12.3915 0.809477 11.2338 0.672507L11.0223 2.46004Z" fill="#5D3EA8"/>
</svg>
